<svg version="1.1" id="Layer_1" xmlns="http://www.w3.org/2000/svg" xmlns:xlink="http://www.w3.org/1999/xlink" x="0px" y="0px"
	 width="100%" viewBox="0 0 356 290" enable-background="new 0 0 356 290" xml:space="preserve">
<!-- <path fill="#040F21" opacity="1.000000" stroke="none" 
	d="
M246.000000,291.000000 
	C164.000015,291.000000 82.500031,291.000000 1.000033,291.000000 
	C1.000022,194.333359 1.000022,97.666733 1.000011,1.000072 
	C119.666618,1.000048 238.333237,1.000048 356.999878,1.000024 
	C356.999939,97.666595 356.999939,194.333191 356.999969,290.999878 
	C320.166656,291.000000 283.333344,291.000000 246.000000,291.000000 
M187.960648,258.555817 
	C211.208801,245.167328 234.545731,231.929016 257.638123,218.277069 
	C262.924713,215.151672 266.910400,214.174377 272.872925,217.405472 
	C283.257233,223.032700 295.813965,219.681473 303.677032,210.724152 
	C311.587433,201.712860 312.628479,189.260666 306.315063,179.169937 
	C299.884155,168.891434 288.179230,164.285049 276.405273,167.399124 
	C265.400177,170.309860 257.215271,180.285278 256.833374,191.795166 
	C256.725372,195.051041 255.638336,196.858856 252.830704,198.463440 
	C232.142731,210.286819 211.512939,222.213715 190.963699,234.276443 
	C187.820343,236.121643 185.426788,236.110519 182.283356,234.270386 
	C159.849701,221.138229 137.345398,208.125137 114.764381,195.248123 
	C111.717468,193.510590 110.709641,191.492767 110.724205,188.108658 
	C110.836090,162.111938 110.843117,136.114227 110.714767,110.117661 
	C110.697784,106.677879 111.818451,104.677567 114.808029,102.970985 
	C137.384735,90.083252 159.909302,77.102806 182.351517,63.982567 
	C185.508652,62.136818 187.877853,62.192932 191.002747,64.027481 
	C210.977829,75.754364 231.004211,87.398094 251.171204,98.790390 
	C255.254059,101.096794 257.062775,103.454704 256.950562,108.432800 
	C256.684753,120.220947 265.156586,130.471710 276.766479,133.618744 
	C288.030090,136.671906 300.255402,131.657455 306.560638,121.398094 
	C312.492218,111.746773 311.376007,98.653664 303.899506,90.182350 
	C295.712830,80.906387 283.340302,77.969711 272.652100,83.297249 
	C269.037750,85.098816 266.401733,84.887321 263.015533,82.914566 
	C238.969421,68.905670 214.783707,55.136501 190.728333,41.143353 
	C187.737885,39.403797 185.492523,39.438541 182.514435,41.166527 
	C153.542938,57.976765 124.518753,74.697227 95.412102,91.272087 
	C92.034073,93.195717 90.833466,95.407333 90.909042,99.210899 
	C91.130814,110.371933 90.786270,121.545578 91.083214,132.703110 
	C91.203209,137.211899 89.658409,138.526382 85.344727,138.258209 
	C80.032570,137.927933 74.654556,138.525131 69.361046,138.069824 
	C65.377922,137.727219 61.294624,136.827835 57.590805,135.341675 
	C51.200981,132.777756 44.054489,134.272247 39.572449,139.823227 
	C35.189018,145.252045 35.089485,152.839172 39.329380,158.351822 
	C43.533268,163.817673 51.244209,166.165482 57.227348,162.681519 
	C61.615089,160.126556 65.948341,159.932022 70.599419,159.975525 
	C75.598450,160.022293 80.611061,160.208710 85.593704,159.919632 
	C89.678658,159.682648 91.157837,161.024933 91.067917,165.244736 
	C90.826523,176.571686 91.110443,187.909332 90.915329,199.238068 
	C90.853745,202.813156 91.911674,204.959152 95.128624,206.794937 
	C124.363312,223.478104 153.494156,240.343170 182.683304,257.106384 
	C184.072327,257.904114 185.723846,258.244812 187.960648,258.555817 
M143.532959,163.446350 
	C143.533737,151.615356 143.644684,139.782669 143.463852,127.954445 
	C143.413773,124.678749 144.527054,122.854691 147.374405,121.259590 
	C159.293304,114.582634 171.114380,107.727448 182.878128,100.779846 
	C185.469009,99.249687 187.526459,99.035408 190.186783,100.659180 
	C197.011093,104.824554 204.102341,108.556496 210.875336,112.799385 
	C212.606216,113.883675 214.107224,116.039146 214.761520,118.017448 
	C217.805084,127.219734 226.167358,132.205475 235.509048,130.029343 
	C244.021011,128.046509 249.661057,119.179771 247.913101,110.528908 
	C246.046661,101.291634 237.890213,95.817726 228.260483,96.826447 
	C225.698715,97.094788 222.655899,96.491837 220.393906,95.260368 
	C210.299179,89.764595 200.346176,83.998405 190.480606,78.098129 
	C187.662399,76.412659 185.540878,76.491943 182.732666,78.130730 
	C164.312485,88.880188 145.744278,99.376709 127.371140,110.204811 
	C125.659431,111.213615 123.977165,113.943436 123.955528,115.892754 
	C123.715149,137.552612 123.872604,159.216614 123.727852,180.878174 
	C123.707840,183.872437 124.893608,185.320114 127.291237,186.687744 
	C145.957138,197.334763 164.519623,208.164368 183.259460,218.678406 
	C184.994095,219.651611 188.178421,219.645325 189.940826,218.699142 
	C199.917160,213.343170 209.719177,207.652954 219.461563,201.875931 
	C222.870071,199.854736 226.082962,198.839203 230.224991,199.309036 
	C238.831177,200.285294 246.410553,194.204041 247.981659,185.848450 
	C249.571747,177.391876 244.364624,168.600662 236.301727,166.129181 
	C228.165543,163.635208 218.392563,167.282166 216.176132,175.427948 
	C214.302094,182.315384 209.641907,184.842728 204.503372,187.756851 
	C199.721725,190.468613 194.888657,193.106049 190.249527,196.046463 
	C187.650208,197.694016 185.601288,197.597961 182.971527,196.030838 
	C172.382706,189.720764 161.863449,183.238846 150.907455,177.622162 
	C145.009033,174.598297 142.275986,170.912033 143.532959,163.446350 
z"/> -->
<path fill="#1555BD" opacity="1.000000" stroke="none" 
	d="
M187.606873,258.677063 
	C185.723846,258.244812 184.072327,257.904114 182.683304,257.106384 
	C153.494156,240.343170 124.363312,223.478104 95.128624,206.794937 
	C91.911674,204.959152 90.853745,202.813156 90.915329,199.238068 
	C91.110443,187.909332 90.826523,176.571686 91.067917,165.244736 
	C91.157837,161.024933 89.678658,159.682648 85.593704,159.919632 
	C80.611061,160.208710 75.598450,160.022293 70.599419,159.975525 
	C65.948341,159.932022 61.615089,160.126556 57.227348,162.681519 
	C51.244209,166.165482 43.533268,163.817673 39.329380,158.351822 
	C35.089485,152.839172 35.189018,145.252045 39.572449,139.823227 
	C44.054489,134.272247 51.200981,132.777756 57.590805,135.341675 
	C61.294624,136.827835 65.377922,137.727219 69.361046,138.069824 
	C74.654556,138.525131 80.032570,137.927933 85.344727,138.258209 
	C89.658409,138.526382 91.203209,137.211899 91.083214,132.703110 
	C90.786270,121.545578 91.130814,110.371933 90.909042,99.210899 
	C90.833466,95.407333 92.034073,93.195717 95.412102,91.272087 
	C124.518753,74.697227 153.542938,57.976765 182.514435,41.166527 
	C185.492523,39.438541 187.737885,39.403797 190.728333,41.143353 
	C214.783707,55.136501 238.969421,68.905670 263.015533,82.914566 
	C266.401733,84.887321 269.037750,85.098816 272.652100,83.297249 
	C283.340302,77.969711 295.712830,80.906387 303.899506,90.182350 
	C311.376007,98.653664 312.492218,111.746773 306.560638,121.398094 
	C300.255402,131.657455 288.030090,136.671906 276.766479,133.618744 
	C265.156586,130.471710 256.684753,120.220947 256.950562,108.432800 
	C257.062775,103.454704 255.254059,101.096794 251.171204,98.790390 
	C231.004211,87.398094 210.977829,75.754364 191.002747,64.027481 
	C187.877853,62.192932 185.508652,62.136818 182.351517,63.982567 
	C159.909302,77.102806 137.384735,90.083252 114.808029,102.970985 
	C111.818451,104.677567 110.697784,106.677879 110.714767,110.117661 
	C110.843117,136.114227 110.836090,162.111938 110.724205,188.108658 
	C110.709641,191.492767 111.717468,193.510590 114.764381,195.248123 
	C137.345398,208.125137 159.849701,221.138229 182.283356,234.270386 
	C185.426788,236.110519 187.820343,236.121643 190.963699,234.276443 
	C211.512939,222.213715 232.142731,210.286819 252.830704,198.463440 
	C255.638336,196.858856 256.725372,195.051041 256.833374,191.795166 
	C257.215271,180.285278 265.400177,170.309860 276.405273,167.399124 
	C288.179230,164.285049 299.884155,168.891434 306.315063,179.169937 
	C312.628479,189.260666 311.587433,201.712860 303.677032,210.724152 
	C295.813965,219.681473 283.257233,223.032700 272.872925,217.405472 
	C266.910400,214.174377 262.924713,215.151672 257.638123,218.277069 
	C234.545731,231.929016 211.208801,245.167328 187.606873,258.677063 
M277.381470,103.968208 
	C275.685303,109.080742 276.960297,112.733673 280.972168,114.255821 
	C284.551361,115.613800 289.254700,114.067764 289.893707,110.420067 
	C290.354889,107.787369 289.550415,103.926231 287.775269,102.130775 
	C284.661285,98.981117 280.791626,100.044075 277.381470,103.968208 
M290.169189,190.478287 
	C286.967926,185.648041 282.179779,184.503647 278.722382,187.861542 
	C276.207581,190.303986 275.532928,193.254608 277.295441,196.418213 
	C279.159515,199.764191 282.243927,200.944672 285.732086,199.781113 
	C289.689117,198.461121 291.369690,195.432922 290.169189,190.478287 
z"/>
<path fill="#72A0EB" opacity="1.000000" stroke="none" 
	d="
M143.532898,163.936249 
	C142.275986,170.912033 145.009033,174.598297 150.907455,177.622162 
	C161.863449,183.238846 172.382706,189.720764 182.971527,196.030838 
	C185.601288,197.597961 187.650208,197.694016 190.249527,196.046463 
	C194.888657,193.106049 199.721725,190.468613 204.503372,187.756851 
	C209.641907,184.842728 214.302094,182.315384 216.176132,175.427948 
	C218.392563,167.282166 228.165543,163.635208 236.301727,166.129181 
	C244.364624,168.600662 249.571747,177.391876 247.981659,185.848450 
	C246.410553,194.204041 238.831177,200.285294 230.224991,199.309036 
	C226.082962,198.839203 222.870071,199.854736 219.461563,201.875931 
	C209.719177,207.652954 199.917160,213.343170 189.940826,218.699142 
	C188.178421,219.645325 184.994095,219.651611 183.259460,218.678406 
	C164.519623,208.164368 145.957138,197.334763 127.291237,186.687744 
	C124.893608,185.320114 123.707840,183.872437 123.727852,180.878174 
	C123.872604,159.216614 123.715149,137.552612 123.955528,115.892754 
	C123.977165,113.943436 125.659431,111.213615 127.371140,110.204811 
	C145.744278,99.376709 164.312485,88.880188 182.732666,78.130730 
	C185.540878,76.491943 187.662399,76.412659 190.480606,78.098129 
	C200.346176,83.998405 210.299179,89.764595 220.393906,95.260368 
	C222.655899,96.491837 225.698715,97.094788 228.260483,96.826447 
	C237.890213,95.817726 246.046661,101.291634 247.913101,110.528908 
	C249.661057,119.179771 244.021011,128.046509 235.509048,130.029343 
	C226.167358,132.205475 217.805084,127.219734 214.761520,118.017448 
	C214.107224,116.039146 212.606216,113.883675 210.875336,112.799385 
	C204.102341,108.556496 197.011093,104.824554 190.186783,100.659180 
	C187.526459,99.035408 185.469009,99.249687 182.878128,100.779846 
	C171.114380,107.727448 159.293304,114.582634 147.374405,121.259590 
	C144.527054,122.854691 143.413773,124.678749 143.463852,127.954445 
	C143.644684,139.782669 143.533737,151.615356 143.532898,163.936249 
z"/>
<path fill="#05142B" opacity="1.000000" stroke="none" 
	d="
M277.586945,103.658417 
	C280.791626,100.044075 284.661285,98.981117 287.775269,102.130775 
	C289.550415,103.926231 290.354889,107.787369 289.893707,110.420067 
	C289.254700,114.067764 284.551361,115.613800 280.972168,114.255821 
	C276.960297,112.733673 275.685303,109.080742 277.586945,103.658417 
z"/>
<path fill="#05142A" opacity="1.000000" stroke="none" 
	d="
M290.291199,190.838043 
	C291.369690,195.432922 289.689117,198.461121 285.732086,199.781113 
	C282.243927,200.944672 279.159515,199.764191 277.295441,196.418213 
	C275.532928,193.254608 276.207581,190.303986 278.722382,187.861542 
	C282.179779,184.503647 286.967926,185.648041 290.291199,190.838043 
z"/>
</svg>